<?xml version="1.0" encoding="UTF-8"?>
<svg id="Layer_1" data-name="Layer 1" xmlns="http://www.w3.org/2000/svg" viewBox="0 0 687.46 669.06">
  <path d="M602.98,492.97c11.83-20.23,20.95-41.82,27.59-64.65.78-2.68.36-5.54-1.14-7.89-13.9-21.65-84.61-130.41-84.61-130.41-27.84-41.77-70.86-55.14-89.02-59.09-3.71-.81-6.71,2.8-5.46,6.39,30.05,86.63-1.3,186.04-81.47,238.37-5.43,3.55-11.02,6.74-16.71,9.7-2.51,1.3-3.37,4.45-1.82,6.82l47.86,73.33c7,10.73,15.27,20.15,24.49,28.18,19.22,16.76,47.31,18.69,69.74,6.55l.13-.07c46.58-25.24,83.39-60.98,110.43-107.23Z"/>
  <path d="M318.55,193.42c5.41-3.54,10.99-6.7,16.65-9.63,2.55-1.32,3.42-4.51,1.85-6.91l-47.84-73.31c-6.91-10.58-15.05-19.86-24.12-27.8-20.42-17.88-50.12-20.43-73.94-7.42h0c-45.52,24.9-81.45,60.47-107.76,106.69-11.6,20.39-20.54,42.14-27.02,65.15-.75,2.66-.32,5.49,1.17,7.82,13.87,21.66,85.04,131.07,85.04,131.07,36.26,48.82,73.76,58.05,89.72,60.01,3.61.44,6.3-3.01,5.09-6.45-12.29-34.89-14.88-72.66-7.04-109.93,11.26-53.61,42.58-99.52,88.19-129.28Z"/>
  <path d="M346.06,66.46l58.91,90.27c1.94,2.98,5.35,4.58,8.9,4.3,19.33-1.53,38.99-.4,58.52,3.71,53.6,11.27,99.51,42.58,129.28,88.19l36.3,55.63c1.36,2.09,4.7.97,4.53-1.52-3.41-48.82-16.17-92.84-38.44-131.99-26.32-46.22-62.25-81.79-107.76-106.69-45.53-24.89-96.39-37.35-152.58-37.35-5.22,0-10.38.15-15.5.39-4.15.2-6,5.2-3.18,8.24,7.62,8.21,14.68,17.13,21.01,26.82Z"/>
  <path d="M341.34,602.64l-58.88-90.21c-1.95-2.99-5.38-4.61-8.94-4.3-5.23.44-10.48.72-15.75.72-14.2,0-28.51-1.49-42.75-4.48-53.61-11.26-99.52-42.58-129.28-88.19l-36.25-55.54c-1.36-2.09-4.7-.96-4.52,1.53,3.41,48.93,15.82,92.74,37.37,131.34,25.6,45.87,60.81,81.45,105.62,106.69,44.81,25.25,94.96,37.88,150.44,37.88,6.91,0,13.72-.26,20.47-.68,4.16-.26,6.06-5.15,3.24-8.21-7.57-8.19-14.54-17.02-20.75-26.54Z"/>
  <path d="M331.75,418.84c30.41-19.85,51.32-50.53,58.86-86.39,6.45-30.72,2.31-61.88-11.47-89.31-1.17-2.33-4.08-3.35-6.45-2.26-5.85,2.7-11.55,5.8-17.03,9.38-30.42,19.85-51.33,50.53-58.87,86.39-6.45,30.72-2.31,61.87,11.46,89.29,1.17,2.33,4.07,3.35,6.44,2.26,5.85-2.7,11.56-5.78,17.05-9.37Z"/>
</svg>