<?xml version="1.0" encoding="UTF-8"?>
<svg id="Layer_1" data-name="Layer 1" xmlns="http://www.w3.org/2000/svg" viewBox="0 0 1451.32 672.06">
  <defs>
    <style>
      .cls-1 {
        fill: #fff;
      }
    </style>
  </defs>
  <path class="cls-1" d="M311.18,392.11h-164.86c-1.35,0-2.55.85-2.99,2.12l-27.11,76.98c-.75,2.12-2.75,3.53-4.99,3.53h-58c-3.66,0-6.21-3.63-4.98-7.07L189.38,73.21c.75-2.1,2.75-3.51,4.98-3.51h69.37c2.23,0,4.23,1.4,4.98,3.51l141.13,394.47c1.23,3.45-1.32,7.07-4.98,7.07h-58.58c-2.24,0-4.24-1.42-4.99-3.53l-27.11-76.98c-.45-1.27-1.65-2.12-2.99-2.12ZM293.33,333.77l-61.3-175.23c-.99-2.83-4.99-2.84-5.99,0l-61.85,175.23c-.73,2.07.8,4.23,2.99,4.23h123.15c2.19,0,3.72-2.16,3-4.22Z"/>
  <path class="cls-1" d="M530.98,49.38v420.08c0,2.92-2.37,5.29-5.29,5.29h-55.77c-2.92,0-5.29-2.37-5.29-5.29V49.38c0-2.92,2.37-5.29,5.29-5.29h55.77c2.92,0,5.29,2.37,5.29,5.29Z"/>
  <path class="cls-1" d="M674.03,49.38v420.08c0,2.92-2.37,5.29-5.29,5.29h-55.77c-2.92,0-5.29-2.37-5.29-5.29V49.38c0-2.92,2.37-5.29,5.29-5.29h55.77c2.92,0,5.29,2.37,5.29,5.29Z"/>
  <path class="cls-1" d="M1402.97,163.9l-192.29,460.82c-.82,1.97-2.75,3.25-4.88,3.25h-57.2c-3.78,0-6.34-3.84-4.88-7.33l61.28-146.64c.53-1.28.55-2.72.03-4.01l-122.58-306.16c-1.39-3.48,1.17-7.26,4.91-7.26h62.41c2.22,0,4.2,1.38,4.96,3.46l86.01,233.05c1.01,2.75,4.89,2.77,5.94.04l89.38-233.15c.78-2.05,2.75-3.4,4.94-3.4h57.09c3.78,0,6.34,3.84,4.88,7.33Z"/>
  <g>
    <path class="cls-1" d="M1044.54,400.84c6.45-11.03,11.43-22.81,15.05-35.26.42-1.46.2-3.02-.62-4.3-7.58-11.81-46.15-71.13-46.15-71.13-15.19-22.78-38.65-30.08-48.56-32.23-2.02-.44-3.66,1.53-2.98,3.48,16.39,47.26-.71,101.48-44.44,130.02-2.96,1.93-6.01,3.68-9.11,5.29-1.37.71-1.84,2.43-.99,3.72l26.11,40c3.82,5.85,8.33,10.99,13.36,15.37,10.49,9.14,25.81,10.2,38.04,3.57l.07-.04c25.41-13.77,45.49-33.26,60.24-58.49Z"/>
    <path class="cls-1" d="M889.39,237.44c2.95-1.93,5.99-3.65,9.08-5.26,1.39-.72,1.87-2.46,1.01-3.77l-26.1-39.99c-3.77-5.77-8.21-10.83-13.16-15.16-11.14-9.75-27.34-11.14-40.33-4.05h0c-24.83,13.58-44.43,32.98-58.78,58.19-6.33,11.12-11.21,22.99-14.74,35.54-.41,1.45-.18,3,.64,4.26,7.57,11.81,46.39,71.5,46.39,71.5,19.78,26.63,40.24,31.66,48.94,32.73,1.97.24,3.44-1.64,2.78-3.52-6.71-19.03-8.11-39.63-3.84-59.97,6.14-29.24,23.23-54.28,48.1-70.52Z"/>
    <path class="cls-1" d="M904.4,168.19l32.13,49.24c1.06,1.62,2.92,2.5,4.85,2.35,10.54-.83,21.27-.22,31.92,2.02,29.24,6.15,54.28,23.23,70.52,48.1l19.8,30.34c.74,1.14,2.56.53,2.47-.83-1.86-26.63-8.82-50.64-20.97-72-14.36-25.21-33.95-44.61-58.78-58.19-24.84-13.58-52.58-20.37-83.23-20.37-2.85,0-5.66.08-8.45.21-2.26.11-3.27,2.83-1.73,4.5,4.16,4.48,8.01,9.34,11.46,14.63Z"/>
    <path class="cls-1" d="M901.83,460.67l-32.12-49.21c-1.07-1.63-2.94-2.51-4.88-2.35-2.85.24-5.71.39-8.59.39-7.74,0-15.55-.81-23.32-2.44-29.24-6.14-54.28-23.23-70.52-48.1l-19.77-30.3c-.74-1.14-2.56-.52-2.47.83,1.86,26.69,8.63,50.58,20.39,71.64,13.96,25.02,33.17,44.43,57.61,58.19,24.44,13.77,51.8,20.66,82.06,20.66,3.77,0,7.49-.14,11.17-.37,2.27-.14,3.31-2.81,1.76-4.48-4.13-4.47-7.93-9.28-11.32-14.48Z"/>
    <path class="cls-1" d="M896.59,360.41c16.59-10.83,27.99-27.56,32.1-47.12,3.52-16.76,1.26-33.75-6.26-48.71-.64-1.27-2.22-1.83-3.52-1.23-3.19,1.47-6.3,3.16-9.29,5.12-16.59,10.83-28,27.56-32.11,47.12-3.52,16.75-1.26,33.75,6.25,48.71.64,1.27,2.22,1.83,3.51,1.23,3.19-1.47,6.31-3.16,9.3-5.11Z"/>
  </g>
</svg>